<?xml version="1.0" standalone="no"?><!DOCTYPE svg PUBLIC "-//W3C//DTD SVG 1.1//EN" "http://www.w3.org/Graphics/SVG/1.1/DTD/svg11.dtd"><svg t="1518706309603" class="icon" style="" viewBox="0 0 1026 1024" version="1.1" xmlns="http://www.w3.org/2000/svg" p-id="841" xmlns:xlink="http://www.w3.org/1999/xlink" width="140.2734375" height="140"><defs><style type="text/css"></style></defs><path d="M858.355822 822.656c380.628114 44.207543 69.434514-534.378057-480.927086-694.776686-673.466514-196.266057-93.319314 628.114286 480.927086 694.776686" fill="#FFCD85" p-id="842"></path><path d="M147.767479 549.423543c-99.011657-65.219657-126.520686-198.816914-61.308343-297.821257 65.197714-98.991543 198.7968-126.507886 297.801143-61.301029 98.998857 65.192229 126.507886 198.789486 61.308343 297.793829s-198.791314 126.518857-297.801143 61.328457m214.842514-326.261029c-80.888686-53.262629-190.021486-30.807771-243.284114 50.088229-53.275429 80.896-30.800457 190.021486 50.088228 243.284114 80.881371 53.288229 190.026971 30.807771 243.2896-50.088228 53.262629-80.8704 30.802286-190.021486-50.093714-243.284115" fill="" p-id="843"></path><path d="M582.475593 612.456229l-32.868571-21.648458 12.202057-18.527085c21.741714-33.005714 12.575086-77.564343-20.450743-99.304229-33.013029-21.739886-77.546057-12.567771-99.284114 20.437943l-12.216686 18.539886-32.868571-21.648457 12.216685-18.525258c33.669486-51.154286 102.672457-65.347657 153.802972-31.665371 51.1488 33.669486 65.347657 102.672457 31.685485 153.801143l-12.218514 18.539886z" fill="" p-id="844"></path><path d="M876.921307 917.626514a22.339657 22.339657 0 0 0 8.363886-28.165485l-13.867886-30.403658c-0.014629-0.027429-0.014629-0.0384-0.027428-0.053028 27.0336-19.644343 50.082743-45.988571 66.305828-78.657829 45.540571-91.589486 18.797714-204.591543-62.7456-266.335085-99.927771-75.679086-241.793829-50.062629-309.628342 52.949942-0.872229 1.300114-1.6384 2.627657-2.464915 3.940572l-62.3232-35.931429L114.663022 246.670629l-23.553829 31.522742 121.400686 90.717258-10.018743-5.789258a306.307657 306.307657 0 0 0-146.177829-40.837485l-33.239771-0.740572A22.575543 22.575543 0 0 0 0.293193 340.538514c-2.439314 15.195429 10.706286 28.322743 25.909029 25.863315l29.238857-4.7744c44.657371 0.976457 88.702171 13.295543 127.3856 35.594971l296.032914 170.6752 62.837029 46.966857c-31.3728 90.678857 1.2032 194.757486 84.928 249.892572 65.055086 42.8544 145.038629 45.664914 210.746514 14.465828l5.794743 24.641829c3.527314 14.985143 20.765257 22.010514 33.755428 13.761828m-24.433371-93.6576c-20.061257-32.069486-45.970286-60.379429-76.348343-83.082971l-9.256228-6.906514 112.078628 64.619885a174.895543 174.895543 0 0 1-26.474057 25.3696M598.186679 588.609829c53.2608-80.896 162.4064-103.376457 243.282286-50.088229 75.6864 49.826743 100.216686 148.544 59.450514 227.307886l-303.956114-175.268572c0.4096-0.6528 0.791771-1.314743 1.223314-1.951085m50.0864 243.282285c-64.705829-42.594743-91.973486-120.952686-73.056914-192l177.3696 132.533029c26.351543 19.682743 48.824686 44.220343 66.2784 71.981714-53.377829 24.705829-117.952 22.144-170.591086-12.514743" fill="" p-id="845"></path></svg>